<?xml version="1.0" standalone="no"?>
<!DOCTYPE svg PUBLIC "-//W3C//DTD SVG 20010904//EN"
 "http://www.w3.org/TR/2001/REC-SVG-20010904/DTD/svg10.dtd">
<svg version="1.0" xmlns="http://www.w3.org/2000/svg"
 width="531.000000pt" height="518.000000pt" viewBox="0 0 531.000000 518.000000"
 style="enable-background:new 0 0 531.000000 518.000000;" xml:space="preserve">
<metadata>
Created by potrace 1.16, written by Peter Selinger 2001-2019
</metadata>
<g transform="translate(0.000000,518.000000) scale(0.100000,-0.100000)"
fill="#000000" stroke="none">
<path d="M2337 3269 c-31 -5 -83 -19 -115 -32 -247 -105 -281 -124 -353 -205
-54 -59 -92 -129 -125 -224 -28 -82 -31 -163 -10 -253 11 -46 12 -71 4 -110
-13 -61 -5 -183 15 -221 17 -31 97 -110 162 -160 95 -73 273 -104 402 -70 129
33 248 115 319 220 28 42 31 52 19 59 -13 7 -15 45 -15 240 0 160 4 237 11
244 23 23 -120 184 -195 220 -20 9 -36 22 -36 29 0 16 118 54 169 54 l36 1
-30 24 c-16 14 -61 41 -99 62 -66 34 -69 37 -45 46 13 5 70 10 127 10 56 1
102 3 102 4 0 11 -106 47 -170 59 -84 15 -91 15 -173 3z m50 -511 c10 -13 173
-467 173 -481 0 -5 -28 -7 -62 -5 l-63 3 -15 53 -15 52 -82 0 -82 0 -16 -55
-16 -55 -60 0 c-43 0 -59 4 -59 13 0 26 161 471 173 479 20 13 114 9 124 -4z"/>
<path d="M1215 2746 c-50 -22 -70 -52 -70 -106 0 -65 33 -100 129 -135 91 -34
116 -57 116 -107 0 -76 -79 -113 -191 -89 -55 12 -65 10 -56 -12 12 -31 152
-36 213 -8 55 25 74 54 74 114 0 64 -31 94 -134 131 -83 31 -116 61 -116 108
0 64 80 101 172 79 28 -6 54 -9 59 -5 53 32 -128 60 -196 30z"/>
<path d="M3950 2735 c-5 -14 -46 -118 -90 -231 -44 -113 -80 -210 -80 -215 0
-6 7 -9 16 -7 10 2 29 34 47 81 l30 77 101 0 102 0 29 -80 c22 -61 34 -80 48
-80 23 0 27 -16 -78 260 -85 221 -104 251 -125 195z m74 -158 l35 -97 -86 0
c-77 0 -84 2 -78 18 3 9 23 59 42 110 25 64 39 89 44 79 5 -7 24 -57 43 -110z"/>
<path d="M4835 2741 c-46 -20 -65 -53 -65 -111 0 -55 30 -84 130 -125 95 -39
120 -62 120 -110 0 -70 -84 -109 -190 -86 -66 14 -70 14 -70 -4 0 -32 152 -47
213 -21 55 23 82 61 82 116 0 60 -24 89 -98 120 -124 51 -130 54 -143 86 -30
72 33 133 125 120 25 -3 58 -9 74 -12 20 -5 27 -3 27 9 0 37 -137 49 -205 18z"/>
<path d="M312 2518 l3 -233 133 -3 c113 -2 132 0 132 13 0 13 -18 15 -115 15
l-115 0 0 100 0 100 105 0 c86 0 105 3 105 15 0 11 -20 15 -102 17 l-103 3 -3
87 -3 87 112 3 c79 2 114 7 117 16 3 9 -28 12 -132 12 l-136 0 2 -232z"/>
<path d="M690 2735 c0 -12 15 -15 75 -15 l75 0 0 -220 c0 -213 1 -220 20 -220
19 0 20 7 20 220 l0 220 75 0 c60 0 75 3 75 15 0 13 -26 15 -170 15 -144 0
-170 -2 -170 -15z"/>
<path d="M3430 2515 l0 -235 130 0 c108 0 130 3 130 15 0 12 -22 15 -112 17
l-113 3 -3 218 c-2 184 -5 217 -17 217 -13 0 -15 -34 -15 -235z"/>
<path d="M4310 2516 l0 -236 105 0 c115 0 148 10 184 56 24 30 28 97 10 138
-7 13 -25 30 -40 37 -34 13 -37 25 -9 34 27 8 50 55 50 99 0 25 -9 45 -29 68
l-29 33 -121 3 -121 4 0 -236z m241 175 c10 -13 19 -39 19 -58 0 -66 -66 -99
-180 -91 l-45 3 -3 88 -3 89 96 -4 c87 -3 99 -5 116 -27z m-22 -192 c38 -14
51 -35 51 -88 0 -28 -7 -48 -24 -68 -23 -26 -29 -28 -120 -31 l-96 -4 0 101 0
101 79 0 c43 0 92 -5 110 -11z"/>
<path d="M2760 2639 c0 -30 9 -83 20 -117 11 -35 20 -77 20 -92 0 -16 4 -31 9
-34 11 -7 81 93 81 115 0 21 -69 125 -104 158 l-26 24 0 -54z"/>
</g>
</svg>
